<svg xmlns="http://www.w3.org/2000/svg" width="27" height="33" viewBox="0 0 27 33"><g><g><path fill="#b2b2b2" d="M27.002 24.371a16.164 16.164 0 0 1-2.238 4.56c-1.32 1.973-2.702 3.9-4.896 3.936-2.133.049-2.85-1.255-5.295-1.255-2.469 0-3.233 1.219-5.278 1.304-2.09.077-3.687-2.106-5.054-4.06C1.51 24.866-.617 17.61 2.234 12.672A7.902 7.902 0 0 1 8.83 8.65c2.092-.043 4.035 1.413 5.32 1.413 1.263 0 3.663-1.742 6.139-1.482a7.561 7.561 0 0 1 5.885 3.182 7.356 7.356 0 0 0-3.475 6.122c.003 2.8 1.725 5.395 4.304 6.486zM13.898 8.213a6.898 6.898 0 0 1 1.686-4.956A7.31 7.31 0 0 1 20.314.81a7.184 7.184 0 0 1-1.644 5.147 6.115 6.115 0 0 1-4.772 2.256z"/></g></g></svg>