<svg xmlns="http://www.w3.org/2000/svg" width="27" height="30" viewBox="0 0 27 30"><g><g><g><path fill="#b2b2b2" d="M.589 29.407l13.9-14.416L.6.6C.23.824 0 1.343 0 2.022v25.977c.005.68.226 1.16.589 1.408z"/></g><g><path fill="#b2b2b2" d="M14.985 14.596l4.14-4.295L2.265.712A1.815 1.815 0 0 0 1.33.45l13.653 14.144z"/></g><g><path fill="#b2b2b2" d="M14.986 15.39L1.29 29.596c.344.006.682-.087.978-.269l16.894-9.615z"/></g><g><path fill="#b2b2b2" d="M25.234 13.777l-5.61-3.197-4.254 4.412 4.285 4.44 5.577-3.189c1.186-.677 1.186-1.792.002-2.466z"/></g></g></g></svg>