<svg xmlns="http://www.w3.org/2000/svg" width="20" height="21" viewBox="0 0 20 21"><g><g><g/><g><path fill="#121212" fill-opacity=".6" d="M6.667 10.588C6.667 8.678 8.16 7.13 10 7.13c1.84 0 3.334 1.548 3.334 3.457 0 1.908-1.493 3.456-3.334 3.456-1.84 0-3.333-1.548-3.333-3.456zm-1.802 0c0 2.94 2.299 5.323 5.135 5.323s5.135-2.383 5.135-5.323c0-2.94-2.299-5.324-5.135-5.324s-5.135 2.383-5.135 5.324zm9.273-5.535c0 .246.07.486.202.691.132.205.32.364.539.459.219.094.46.119.693.07.233-.047.447-.166.614-.34.168-.174.283-.395.329-.636a1.287 1.287 0 0 0-.068-.72 1.235 1.235 0 0 0-.442-.558 1.17 1.17 0 0 0-.666-.21 1.18 1.18 0 0 0-.849.365c-.225.233-.352.549-.352.879zM5.96 19.026c-.975-.046-1.505-.214-1.857-.356a3.1 3.1 0 0 1-1.15-.776 3.213 3.213 0 0 1-.748-1.191c-.138-.365-.3-.915-.344-1.926-.049-1.093-.058-1.42-.058-4.19 0-2.768.01-3.095.058-4.19.044-1.01.208-1.558.344-1.924.181-.484.398-.83.748-1.193.35-.363.682-.588 1.15-.775.352-.143.882-.311 1.857-.357 1.054-.05 1.37-.06 4.04-.06s2.986.01 4.041.06c.975.046 1.504.216 1.857.357.467.187.8.412 1.15.775.35.363.567.709.749 1.193.137.365.3.914.344 1.925.048 1.094.058 1.421.058 4.19 0 2.768-.01 3.096-.058 4.19-.045 1.01-.208 1.56-.344 1.925-.182.484-.399.829-.748 1.191a3.1 3.1 0 0 1-1.15.776c-.353.142-.883.31-1.858.356-1.054.05-1.37.06-4.041.06-2.67 0-2.986-.01-4.04-.06zM5.877.283C4.813.333 4.085.508 3.45.764A4.89 4.89 0 0 0 1.678 1.96 5.088 5.088 0 0 0 .525 3.797C.278 4.456.109 5.21.061 6.313.01 7.42 0 7.772 0 10.587c0 2.816.011 3.17.06 4.275.049 1.104.218 1.857.465 2.516.255.682.597 1.261 1.153 1.837.557.576 1.114.93 1.772 1.196.636.256 1.363.431 2.427.481 1.067.05 1.407.063 4.123.063s3.057-.012 4.123-.063c1.064-.05 1.791-.225 2.427-.481a4.903 4.903 0 0 0 1.771-1.196 5.102 5.102 0 0 0 1.154-1.837c.247-.659.417-1.413.464-2.516.049-1.106.06-1.459.06-4.275 0-2.815-.011-3.168-.06-4.274-.048-1.104-.217-1.858-.464-2.516a5.121 5.121 0 0 0-1.153-1.837A4.88 4.88 0 0 0 16.55.764c-.637-.256-1.364-.432-2.427-.481C13.057.233 12.716.22 10 .22c-2.716 0-3.057.012-4.124.063z"/></g></g></g></svg>