<svg xmlns="http://www.w3.org/2000/svg" width="20" height="17" viewBox="0 0 20 17"><g><g><path fill="#121212" fill-opacity=".6" d="M17.845 4.007v.519c0 5.365-3.95 11.56-11.15 11.56-2.225 0-4.275-.674-6.025-1.815.3.026.625.052.925.052a7.755 7.755 0 0 0 4.875-1.737c-1.725-.025-3.175-1.218-3.65-2.825.25.052.475.078.75.078.35 0 .7-.052 1.025-.155-1.8-.363-3.15-1.996-3.15-3.966v-.052a3.749 3.749 0 0 0 1.775.519 4.111 4.111 0 0 1-1.75-3.396c0-.751.2-1.451.525-2.047C3.92 3.204 6.82 4.81 10.07 4.992a3.81 3.81 0 0 1-.1-.933c0-2.255 1.75-4.069 3.925-4.069 1.125 0 2.15.492 2.85 1.27a7.795 7.795 0 0 0 2.5-.985A4.165 4.165 0 0 1 17.52 2.53c.8-.104 1.55-.311 2.25-.648-.5.83-1.15 1.555-1.925 2.125z"/></g></g></svg>