<svg xmlns="http://www.w3.org/2000/svg" width="153" height="57" viewBox="0 0 153 57"><g><g opacity=".4"><g opacity=".4"/><g opacity=".4"><g opacity=".4"><path fill="#fff" d="M34.865 13.515c-3.165 3.398-6.395 6.533-9.241 9.989-4.69 5.697-7.36 12.235-6.939 19.788.437 7.801 3.93 14.614 13.668 13.613 2.087-.214 4.796-.806 5.928-2.245 1.513-1.928 1.763-4.854 2.573-7.404-1.588-.573-2.162.347-2.842 1.199-1.22 1.523-2.345 3.192-3.816 4.433-1.896 1.6-4.199 2.406-6.66 1.172-2.364-1.183-3.22-3.368-3.136-5.838.095-2.78.262-5.587.78-8.313 1.789-9.493 6.831-17.29 12.524-24.168 2.914.722 5.418 1.665 7.987 1.898 3.53.324 6.939-.462 9.523-3.208 2.295-2.44 1.52-5.468-1.691-6.32-3.565-.943-7.186-.844-10.477.936-1.352.73-2.192.454-3.378-.138-5.13-2.562-10.27-5.097-15.48-7.473C21.28.111 18.213-.434 14.976.39c-4.899 1.249-7.893 4.792-7.642 9.844.102 2.09 1.098 4.117 1.508 6.21.282 1.44.468 2.966.27 4.398-.091.657-1.216 1.642-1.854 1.631-.89-.015-2.075-.611-2.584-1.344-1.098-1.585-.243-3.12.74-4.525.377-.535.643-1.15 1.046-1.886-2.493-.21-4.256.534-5.122 2.107-.962 1.745-.814 3.555.174 5.24 1.745 2.966 5.894 4.024 8.991 2.36 2.793-1.501 4.298-5.492 2.52-8.535-.924-1.581-1.942-3.109-2.862-4.693-1.95-3.353-.182-7.099 3.694-7.309 1.98-.107 4.229.248 5.973 1.142 5.153 2.654 10.123 5.678 15.036 8.485z"/></g><g opacity=".4"><path fill="#fff" d="M61.416 9.934c-.311.76-.55 1.451-.87 2.108-3.492 7.164-6.946 14.346-10.53 21.464-.968 1.925-1.09 3.803-.794 5.923 1.889-.203 3.675-.39 5.514-.588-1.645-3.3.992-5.312 1.915-8.264 1.604 2.211 2.007 4.353 2.3 6.51.558 4.098 1.903 7.764 6.079 9.353 5.92 2.253 11.65 1.432 16.966-1.898 1.05-.657 1.684-1.982 2.645-3.166-3.066-.836-4.05-.301-5.483 1.505-.882 1.115-2.272 2.306-3.58 2.509-5.95.927-10.567-.237-12.262-7.473-.767-3.28-1.296-6.538-4.313-8.798 9.018-2.57 12.726-6.687 11.438-12.64-3.203 1.944-6.353 3.853-9.564 5.8.84-1.771 1.683-3.578 2.55-5.372 1.071-2.223 2.188-4.418 3.233-6.652.498-1.058.327-2.295-.843-2.482-2.197-.348-4.42-.092-7.019 1.118l2.618 1.043z"/></g><g opacity=".4"><path fill="#fff" d="M91.471 39.374c1.095-.164 1.836-.233 2.558-.393 1.235-.271 2.002-.623 2.34-2.299.874-4.319 3.397-7.828 6.54-10.868-1.623 4.457-5.107 8.283-4.32 13.675 2.257-.436 4.331-.84 6.41-1.241-.004-.199-.004-.397-.008-.6-.642-.27-1.28-.542-2.086-.886.452-1.084.874-2.123 1.319-3.154 1.178-2.726 2.454-5.41 3.496-8.187.311-.836.327-2.28-.179-2.78-.486-.481-1.907-.359-2.751-.046-1.265.466-2.39 1.33-3.504 1.982.004-2.386-.592-2.963-2.998-2.302-1.105.301-2.082 1.092-3.169 1.684-.038-.562-.076-1.096-.129-1.814-2.74.641-5.529.256-8.044 1.298.015.183.034.367.049.55l3.374.836c-1.356 2.662-2.56 5.258-3.978 7.737-1.239 2.169-1.908 4.376-1.463 6.96.817-.144 1.603-.404 2.39-.4 1.493.008 1.744-.699 2.166-2.1 1.33-4.426 3.644-8.378 6.965-11.681-1.235 4.758-5.107 8.561-4.978 14.03z"/></g><g opacity=".4"><path fill="#fff" d="M130.396 24.324l.483.36c-.187.633-.304 1.297-.57 1.89-1.403 3.104-3.002 6.132-4.23 9.305-1.204 3.108-.957 3.296 2.235 3.135.756-.038 1.52-.007 2.272-.091.501-.058.988-.264 1.995-.55-1.056-.516-1.585-.772-2.3-1.12.26-.759.43-1.565.795-2.264 1.053-2.02 2.284-3.952 3.245-6.014.68-1.462 1.216-3.047 1.475-4.636.22-1.359-.51-2.451-2.11-2.119-1.854.382-3.663.97-5.448 1.459.163-1.161-.59-1.413-1.938-1.146-1.733.344-3.625.115-5.453 1.63 1.185.276 1.93.448 2.789.646-1.668 5.086-5.605 9.157-5.366 14.793 2.284-.37 4.374-.706 6.464-1.046.03-.157.065-.313.095-.47-1.892-.485-2.002-1.615-1.296-3.04 1.315-2.657 2.512-5.38 3.998-7.934.653-1.108 1.896-1.868 2.865-2.788z"/></g><g opacity=".4"><path fill="#fff" d="M75.094 35.027c.315 1.283.498 2.661 1.03 3.887.243.557 1.208 1.188 1.79 1.138 1.808-.157 4.385-3.548 4.411-5.69-.786.592-1.49 1.119-2.675 2.009v-8.145l-.714-.34c-2.326 2.6-4.655 5.2-6.98 7.801-.141-.133-.282-.267-.419-.4 1.304-4.663 3.618-8.604 7.995-11.304 1.064 2.498 1.908 4.987 4.841 6.037-.156-2.737-.296-5.22-.44-7.79-1.578 0-3.135-.252-4.583.043-7.041 1.44-13.47 7.782-12.802 15.973.163 2.004.733 2.463 2.398 1.34 2.12-1.428 4.126-3.047 6.148-4.56z"/></g><g opacity=".4"><path fill="#fff" d="M39.766 35.138c.311 1.271.505 2.608 1 3.814.22.539 1.044 1.157 1.603 1.165 1.93.027 4.67-3.364 4.506-5.525-.725.53-1.383 1.015-2.47 1.813-.144-2.978-.266-5.51-.395-8.145-1.38 1.36-2.626 2.605-3.887 3.834-1.212 1.184-2.436 2.352-3.656 3.525 1.083-4.93 3.394-8.894 7.737-11.548 1.083 2.532 1.885 5.11 4.856 6.045-.163-2.68-.319-5.193-.475-7.717-8.04-1.795-18.33 6.392-17.396 15.832.206 2.07.833 2.592 2.539 1.428 2.07-1.417 4.031-3.01 6.038-4.521z"/></g><g opacity=".4"><path fill="#fff" d="M140.966 32.458c6.007-.542 12.197-5.629 11.692-9.41-3.785-.266-7.562-.42-10.948 1.792-3.834 2.505-6.266 5.82-5.977 10.677.126 2.138 1.368 3.83 3.158 4.22 2.2.477 10.23-3.224 11.631-5.652-.874.168-1.49.202-2.044.408-1.645.615-3.245 1.36-4.906 1.929-1.603.55-2.397.015-2.591-1.639-.084-.737-.015-1.493-.015-2.325z"/></g><g opacity=".4"><path fill="#fff" d="M118.989 23.043c-.182-.191-.36-.382-.543-.573l-7.387.905c-.042.252-.08.5-.122.752.745.191 1.49.382 2.459.627-.24.568-.445 1.145-.719 1.687-1.349 2.647-2.743 5.27-4.066 7.932-.417.836-.805 1.737-.957 2.65-.323 1.898.407 2.612 2.303 2.344 1.425-.202 2.834-.523 4.244-.81.361-.072.707-.213 1.064-.324-2.724-1.172-2.854-1.42-1.767-3.631.726-1.474 1.66-2.845 2.356-4.334 1.11-2.38 2.098-4.816 3.135-7.225z"/></g><g opacity=".4"><path fill="#fff" d="M117.264 14.19c-.794.74-1.588 1.535-2.443 2.264-1.258 1.07-1.011 2.055.121 2.967 1.866 1.501 4.025 1.314 6.255 1.177a31169.67 31169.67 0 0 1-3.933-6.408z"/></g><g opacity=".4"><path d="M34.87 13.515c-4.913-2.806-9.88-5.83-15.04-8.48-1.744-.898-3.993-1.25-5.973-1.142-3.872.21-5.643 3.956-3.693 7.308.92 1.585 1.938 3.109 2.86 4.693 1.775 3.044.27 7.03-2.518 8.535-3.097 1.665-7.243.607-8.991-2.36-.988-1.68-1.14-3.494-.175-5.239.867-1.573 2.63-2.318 5.122-2.108-.402.737-.668 1.352-1.045 1.887-.984 1.409-1.839 2.94-.74 4.525.509.733 1.694 1.328 2.583 1.344.643.011 1.764-.974 1.855-1.63.197-1.429.011-2.96-.27-4.4-.41-2.092-1.402-4.12-1.509-6.209-.247-5.056 2.748-8.6 7.646-9.848 3.237-.825 6.304-.283 9.21 1.043 5.21 2.379 10.352 4.914 15.478 7.473 1.182.591 2.025.866 3.378.137 3.29-1.776 6.916-1.879 10.476-.936 3.211.852 3.986 3.88 1.691 6.32-2.584 2.746-5.992 3.532-9.522 3.208-2.57-.237-5.073-1.176-7.988-1.898-5.692 6.881-10.73 14.675-12.524 24.168-.513 2.722-.68 5.533-.78 8.313-.087 2.47.768 4.655 3.136 5.838 2.462 1.234 4.765.428 6.66-1.172 1.472-1.24 2.596-2.91 3.816-4.433.68-.852 1.254-1.772 2.842-1.2-.809 2.551-1.06 5.477-2.572 7.405-1.133 1.443-3.842 2.031-5.928 2.245-9.74 1-13.231-5.812-13.668-13.613-.426-7.553 2.25-14.09 6.938-19.788 2.85-3.456 6.08-6.59 9.246-9.986zM44.002 11c2.69 1.753 5.384 2.662 8.325 2.33.84-.096 1.589-1.009 2.375-1.543-.634-.607-1.163-1.486-1.915-1.772-2.915-1.104-5.764-.699-8.785.985z"/></g><g opacity=".4"><path d="M61.422 9.93l-2.614-1.039c2.595-1.21 4.822-1.466 7.019-1.118 1.17.183 1.337 1.42.843 2.482-1.049 2.234-2.162 4.433-3.234 6.652-.866 1.794-1.71 3.6-2.55 5.372 3.208-1.947 6.362-3.856 9.565-5.8 1.292 5.957-2.42 10.07-11.438 12.64 3.021 2.256 3.546 5.517 4.313 8.797 1.695 7.237 6.312 8.401 12.263 7.474 1.307-.207 2.697-1.398 3.579-2.51 1.433-1.806 2.417-2.336 5.483-1.504-.961 1.184-1.596 2.509-2.644 3.166-5.316 3.33-11.047 4.15-16.967 1.898-4.18-1.589-5.525-5.255-6.08-9.352-.292-2.161-.695-4.3-2.299-6.51-.923 2.951-3.564 4.963-1.915 8.263-1.84.194-3.621.385-5.514.588-.296-2.12-.174-4.002.795-5.923 3.583-7.118 7.037-14.3 10.53-21.464.315-.66.554-1.356.866-2.112zm-2.956 16.852c4.328-.967 6.11-2.513 6.608-5.537"/></g><g opacity=".4"><path d="M91.464 39.37c-.13-5.471 3.739-9.271 4.985-14.017-3.317 3.299-5.635 7.255-6.965 11.68-.422 1.402-.673 2.108-2.166 2.1-.787-.003-1.573.257-2.39.402-.445-2.59.224-4.796 1.463-6.961 1.417-2.479 2.622-5.08 3.978-7.737-1.463-.363-2.416-.6-3.374-.836-.015-.184-.034-.367-.05-.55 2.516-1.043 5.309-.657 8.045-1.298.05.714.087 1.252.13 1.813 1.086-.595 2.063-1.382 3.168-1.684 2.406-.656 3.002-.08 2.998 2.303 1.114-.653 2.235-1.516 3.504-1.982.847-.313 2.268-.435 2.751.046.502.5.49 1.947.179 2.78-1.038 2.776-2.318 5.464-3.496 8.187-.445 1.031-.867 2.07-1.319 3.154.806.34 1.444.615 2.086.886.004.199.004.397.008.6-2.079.4-4.157.801-6.41 1.24-.787-5.391 2.697-9.217 4.32-13.674-3.143 3.04-5.666 6.55-6.54 10.868-.338 1.673-1.105 2.024-2.34 2.299-.726.149-1.471.217-2.565.382z"/></g><g opacity=".4"><path d="M130.399 24.324c-.97.92-2.212 1.68-2.858 2.788-1.486 2.554-2.686 5.277-3.997 7.935-.703 1.424-.593 2.558 1.295 3.04-.03.156-.064.312-.095.469-2.09.34-4.183.676-6.463 1.046-.243-5.636 3.697-9.707 5.365-14.793l-2.789-.645c1.828-1.516 3.72-1.287 5.453-1.63 1.349-.268 2.101-.016 1.938 1.145 1.782-.485 3.595-1.073 5.449-1.459 1.6-.332 2.33.76 2.109 2.12-.259 1.588-.794 3.173-1.475 4.635-.96 2.062-2.192 3.99-3.245 6.014-.364.703-.532 1.505-.794 2.265.715.347 1.243.603 2.3 1.119-1.008.286-1.494.492-1.996.55-.752.084-1.516.053-2.272.091-3.192.16-3.443-.023-2.234-3.135 1.23-3.173 2.827-6.201 4.229-9.306.27-.595.384-1.26.57-1.89a23.099 23.099 0 0 1-.49-.359z"/></g><g opacity=".4"><path d="M75.098 35.035c-2.022 1.512-4.024 3.13-6.152 4.563-1.668 1.122-2.235.664-2.398-1.34-.669-8.195 5.76-14.538 12.802-15.974 1.448-.298 3.01-.042 4.583-.042.144 2.566.284 5.052.44 7.79-2.933-1.054-3.777-3.544-4.84-6.037-4.378 2.704-6.696 6.64-7.996 11.303.14.134.281.267.418.4 2.326-2.6 4.655-5.2 6.98-7.8.24.114.476.225.715.34v8.144l2.675-2.008c-.026 2.142-2.603 5.53-4.411 5.69-.582.05-1.547-.58-1.79-1.138-.532-1.23-.71-2.608-1.026-3.891z"/></g><g opacity=".4"><path d="M39.77 35.137c-2.007 1.512-3.964 3.104-6.042 4.52-1.706 1.166-2.333.642-2.539-1.427-.934-9.44 9.36-17.623 17.396-15.832.156 2.524.312 5.037.475 7.717-2.971-.935-3.777-3.513-4.856-6.045-4.343 2.654-6.654 6.618-7.737 11.548 1.22-1.176 2.444-2.345 3.656-3.525 1.262-1.23 2.508-2.474 3.887-3.834.126 2.631.251 5.167.395 8.145l2.47-1.813c.164 2.165-2.576 5.556-4.506 5.525-.559-.007-1.383-.626-1.604-1.165-.494-1.206-.684-2.543-.995-3.814z"/></g><g opacity=".4"><path d="M140.966 32.464c0 .833-.073 1.589.015 2.33.19 1.653.988 2.188 2.591 1.638 1.66-.57 3.257-1.314 4.906-1.929.555-.206 1.17-.24 2.044-.408-1.402 2.424-9.43 6.125-11.631 5.651-1.79-.385-3.029-2.081-3.158-4.22-.289-4.857 2.143-8.171 5.977-10.676 3.382-2.211 7.16-2.058 10.948-1.791.505 3.777-5.685 8.863-11.692 9.405zm.786-2.7c2.565.012 4.948-2.1 5.578-4.983"/></g><g opacity=".4"><path d="M118.992 23.043c-1.042 2.41-2.03 4.846-3.14 7.225-.695 1.485-1.63 2.856-2.355 4.334-1.087 2.21-.958 2.459 1.767 3.631-.353.11-.703.252-1.064.325-1.414.286-2.82.607-4.245.81-1.896.266-2.622-.451-2.302-2.345.155-.913.543-1.81.957-2.65 1.323-2.658 2.717-5.285 4.066-7.932.274-.538.479-1.115.718-1.687a445.27 445.27 0 0 0-2.458-.627c.042-.252.08-.5.121-.752l7.387-.905c.187.19.369.382.548.573z"/></g><g opacity=".4"><path d="M117.264 14.19l3.933 6.404c-2.23.137-4.393.324-6.255-1.176-1.132-.913-1.379-1.898-.121-2.967.851-.722 1.649-1.52 2.443-2.261z"/></g><g opacity=".4"><path fill="#fff" d="M44 10.992c3.02-1.684 5.87-2.088 8.785-.985.753.287 1.285 1.165 1.916 1.772-.79.539-1.54 1.451-2.375 1.543-2.945.328-5.636-.58-8.326-2.33z"/></g><g opacity=".4"><path fill="#fff" d="M58.46 26.787a10662.6 10662.6 0 0 1 6.608-5.537"/></g><g opacity=".4"><path fill="#fff" d="M141.76 29.763c1.075-2.57 2.903-4.147 5.578-4.983"/></g></g></g></g></svg>