<svg xmlns="http://www.w3.org/2000/svg" width="32" height="32" viewBox="0 0 32 32"><g><g><g/><g><g><g><path fill="#a4a4a4" d="M23.65 11.33a4.025 4.025 0 0 1 4.013 4.013v.92H25.97c-1.01 0-1.945.398-2.628 1.094a3.678 3.678 0 0 0-1.088 2.969c.172 2.03 1.997 3.404 3.876 3.404h1.533v.587a4.025 4.025 0 0 1-4.013 4.013H12.232c.491-.895.765-1.923.765-3a6.332 6.332 0 0 0-8.667-5.886v-4.1a4.025 4.025 0 0 1 4.013-4.014zM2.33 21.17a1 1 0 0 0 1.623.782 4.332 4.332 0 0 1 7.043 3.378c0 .813-.227 1.578-.624 2.222l-.012.02c-.223.383-.509.72-.833.992a1 1 0 0 0 .643 1.766h13.48a6.025 6.025 0 0 0 6.013-6.013V22.73a1 1 0 0 0-1-1H26.13c-.999 0-1.813-.73-1.883-1.576l-.002-.012a1.678 1.678 0 0 1 .503-1.363l.018-.018a1.657 1.657 0 0 1 1.204-.498h2.693a1 1 0 0 0 1-1v-1.92A6.025 6.025 0 0 0 23.65 9.33H8.343a6.025 6.025 0 0 0-6.013 6.013z"/></g><g><path fill="#a4a4a4" d="M18.797 5.27a1.534 1.534 0 0 0-2.073-1.438l-10.587 4a2.798 2.798 0 0 0-1.807 2.625v6.093a1 1 0 0 1-2 0v-6.093c0-2 1.229-3.788 3.1-4.495l10.586-4c2.31-.876 4.78.838 4.78 3.308v5.067a1 1 0 1 1-2 0z"/></g></g><g><path fill="#a4a4a4" d="M28.723 18.27a.368.368 0 0 1 .356.36v2.747c0 .177-.14.346-.356.36h-2.59c-1 0-1.814-.73-1.884-1.577l-.001-.011a1.678 1.678 0 0 1 .503-1.363l.018-.018a1.658 1.658 0 0 1 1.203-.498zm-6.467 2.062c.173 2.03 1.997 3.405 3.876 3.405h2.614l.035-.001c1.27-.045 2.298-1.074 2.298-2.36V18.63c0-1.286-1.027-2.314-2.298-2.36h-2.809c-1.01 0-1.945.398-2.627 1.093a3.678 3.678 0 0 0-1.089 2.97z"/></g><g><path fill="#a4a4a4" d="M8.33 16a1 1 0 0 1 1-1h9.333a1 1 0 1 1 0 2H9.33a1 1 0 0 1-1-1z"/></g><g><g><path fill="#a4a4a4" d="M10.997 25.333c0 .813-.228 1.578-.625 2.222l-.012.021A3.792 3.792 0 0 1 9.5 28.59a4.207 4.207 0 0 1-2.838 1.077 4.293 4.293 0 0 1-3.7-2.098l-.008-.014a4.228 4.228 0 0 1-.625-2.222c0-1.367.628-2.588 1.622-3.376l.001-.002a4.332 4.332 0 0 1 7.043 3.378zm-8.29-4.942A6.294 6.294 0 0 0 .33 25.333c0 1.185.331 2.31.918 3.265a6.293 6.293 0 0 0 5.415 3.069c1.59 0 3.05-.582 4.163-1.579a5.792 5.792 0 0 0 1.255-1.494 6.228 6.228 0 0 0 .916-3.26 6.332 6.332 0 0 0-10.29-4.943z"/></g><g><path fill="#a4a4a4" d="M9.484 23.351a1 1 0 0 1-.055 1.413l-2.84 2.627a1 1 0 0 1-1.386-.027l-1.32-1.32a1 1 0 0 1 1.414-1.414l.64.64 2.134-1.974a1 1 0 0 1 1.413.055z"/></g></g></g></g></g></svg>