<svg xmlns="http://www.w3.org/2000/svg" width="32" height="32" viewBox="0 0 32 32"><g><g><g/><g><g><g><path fill="#a4a4a4" d="M18.963 2.963c.92-.92 2.22-1.293 3.707-1.293h2.667c1.487 0 2.786.373 3.707 1.293.92.92 1.293 2.22 1.293 3.707v2.667c0 1.487-.373 2.786-1.293 3.707-.92.92-2.22 1.293-3.707 1.293H22.67c-1.487 0-2.787-.373-3.707-1.293-.92-.92-1.293-2.22-1.293-3.707V6.67c0-1.487.373-2.787 1.293-3.707zm1.414 1.414c-.413.413-.707 1.114-.707 2.293v2.667c0 1.179.294 1.88.707 2.293.413.412 1.114.707 2.293.707h2.667c1.179 0 1.88-.294 2.293-.707.412-.413.707-1.114.707-2.293V6.67c0-1.18-.295-1.88-.707-2.293-.413-.413-1.114-.707-2.293-.707H22.67c-1.18 0-1.88.294-2.293.707z"/></g><g><path fill="#a4a4a4" d="M2.963 18.963c.92-.92 2.22-1.293 3.707-1.293h2.667c1.487 0 2.786.373 3.707 1.293.92.92 1.293 2.22 1.293 3.707v2.667c0 1.487-.373 2.786-1.293 3.707-.92.92-2.22 1.293-3.707 1.293H6.67c-1.487 0-2.787-.373-3.707-1.293-.92-.92-1.293-2.22-1.293-3.707V22.67c0-1.487.373-2.787 1.293-3.707zm1.414 1.414c-.413.413-.707 1.114-.707 2.293v2.667c0 1.179.294 1.88.707 2.293.413.412 1.114.707 2.293.707h2.667c1.179 0 1.88-.295 2.293-.707.412-.413.707-1.114.707-2.293V22.67c0-1.18-.294-1.88-.707-2.293-.413-.413-1.114-.707-2.293-.707H6.67c-1.18 0-1.88.294-2.293.707z"/></g><g><path fill="#a4a4a4" d="M12.337 8.003a4.333 4.333 0 1 1-8.667 0 4.333 4.333 0 0 1 8.667 0zm-4.334 6.334a6.333 6.333 0 1 0 0-12.667 6.333 6.333 0 0 0 0 12.667z"/></g><g><path fill="#a4a4a4" d="M28.337 24.003a4.333 4.333 0 1 1-8.667 0 4.333 4.333 0 0 1 8.667 0zm-4.334 6.334a6.333 6.333 0 1 0 0-12.667 6.333 6.333 0 0 0 0 12.667z"/></g></g></g></g></g></svg>