<svg xmlns="http://www.w3.org/2000/svg" width="32" height="32" viewBox="0 0 32 32"><g><g><g/><g><g><g><path fill="#a4a4a4" d="M2.477 4.916A6.328 6.328 0 0 1 8.004 1.67h12a1 1 0 0 1 1 1v13.333a3.674 3.674 0 0 1-3.667 3.667h-1.333a1 1 0 1 1 0-2h1.333c.914 0 1.667-.752 1.667-1.667V3.67h-11a4.328 4.328 0 0 0-3.78 2.22 1 1 0 0 1-1.747-.974z"/></g><g><path fill="#a4a4a4" d="M19.003 6.67a1 1 0 0 1 1-1h2.454c1.325 0 2.53.717 3.184 1.845l.004.005 2.28 3.987a1 1 0 0 1-.868 1.496h-1.72a.337.337 0 0 0-.334.334v4c0 .18.153.333.334.333h4a1 1 0 0 1 1 1v4c0 2.766-2.235 5-5 5h-1.334a1 1 0 0 1-1-1c0-.914-.752-1.667-1.666-1.667-.915 0-1.667.753-1.667 1.667a1 1 0 0 1-1 1h-5.333a1 1 0 0 1-1-1c0-.914-.753-1.667-1.667-1.667s-1.667.753-1.667 1.667a1 1 0 0 1-1 1H6.67c-2.766 0-5-2.234-5-5a1 1 0 1 1 2 0c0 1.661 1.339 3 3 3h.472a3.678 3.678 0 0 1 3.528-2.667c1.673 0 3.09 1.131 3.528 2.667h3.611a3.678 3.678 0 0 1 3.528-2.667c1.672 0 3.09 1.131 3.527 2.667h.473c1.66 0 3-1.339 3-3v-3h-3a2.337 2.337 0 0 1-2.334-2.333v-4a2.337 2.337 0 0 1 2.33-2.334L23.912 8.52l-.001-.003a1.689 1.689 0 0 0-1.454-.846h-1.454v8.333a3.674 3.674 0 0 1-3.666 3.667h-1.334a1 1 0 1 1 0-2h1.334c.914 0 1.666-.752 1.666-1.667z"/></g><g><path fill="#a4a4a4" d="M12.333 26.667a1.667 1.667 0 1 1-3.333 0 1.667 1.667 0 0 1 3.333 0zm-1.666 3.666a3.667 3.667 0 1 0 0-7.333 3.667 3.667 0 0 0 0 7.333z"/></g><g><path fill="#a4a4a4" d="M23.003 26.667a1.667 1.667 0 1 1-3.333 0 1.667 1.667 0 0 1 3.333 0zm-1.666 3.666a3.667 3.667 0 1 0 0-7.333 3.667 3.667 0 0 0 0 7.333z"/></g><g><path fill="#a4a4a4" d="M26.472 13l1.861 3.265v1.402h-3a.337.337 0 0 1-.333-.334v-4c0-.18.152-.333.333-.333zM23 17.333a2.337 2.337 0 0 0 2.333 2.334h4a1 1 0 0 0 1-1V16a1 1 0 0 0-.13-.495l-2.28-4a1 1 0 0 0-.87-.505h-1.72A2.337 2.337 0 0 0 23 13.333z"/></g><g><path fill="#a4a4a4" d="M1.67 10.67a1 1 0 0 1 1-1h8a1 1 0 1 1 0 2h-8a1 1 0 0 1-1-1z"/></g><g><path fill="#a4a4a4" d="M1.67 14.67a1 1 0 0 1 1-1h5.333a1 1 0 1 1 0 2H2.67a1 1 0 0 1-1-1z"/></g><g><path fill="#a4a4a4" d="M1.67 18.67a1 1 0 0 1 1-1h2.667a1 1 0 0 1 0 2H2.67a1 1 0 0 1-1-1z"/></g></g></g></g></g></svg>